<svg xmlns="http://www.w3.org/2000/svg" stroke-linecap="round" stroke-linejoin="round" viewBox="-2 0 42 8">
  <g fill="none">
    <path stroke="#000" stroke-width="2.8" d="M0 3h2v1L0 5v1h2"/>
    <path stroke="#fff1e8" d="M0 3h2v1L0 5v1h2"/>
  </g>
  <g fill="none">
    <path stroke="#000" stroke-width="2.8" d="M4.8 5v1h1l1-1V3h-1l-1 1v1"/>
    <path stroke="#fff1e8" d="M4.8 5v1h1l1-1V3h-1l-1 1v1"/>
  </g>
  <g fill="none">
    <path stroke="#000" stroke-width="2.8" d="M11.6 3h-2v3h2m-1-1.5h-1"/>
    <path stroke="#fff1e8" d="M11.6 3h-2v3h2m-1-1.5h-1"/>
  </g>
  <g fill="none">
    <path stroke="#000" stroke-width="2.8" d="M14.4 3h2m-1 0v3"/>
    <path stroke="#fff1e8" d="M14.4 3h2m-1 0v3"/>
  </g>
  <g fill="none">
    <path stroke="#000" stroke-width="2.8" d="M19.2 6V3h2v1l-1 1 1 1"/>
    <path stroke="#fff1e8" d="M19.2 6V3h2v1l-1 1 1 1"/>
  </g>
  <g fill="none">
    <path stroke="#000" stroke-width="2.8" d="M24 5v1h1l1-1V3h-1l-1 1v1"/>
    <path stroke="#fff1e8" d="M24 5v1h1l1-1V3h-1l-1 1v1"/>
  </g>
  <g fill="none">
    <path stroke="#000" stroke-width="2.8" d="M28.8 6V3h2v2h-2"/>
    <path stroke="#fff1e8" d="M28.8 6V3h2v2h-2"/>
  </g>
  <g fill="none">
    <path stroke="#000" stroke-width="2.8" d="M35.6 3h-2v3h2m-1-1.5h-1"/>
    <path stroke="#fff1e8" d="M35.6 3h-2v3h2m-1-1.5h-1"/>
  </g>
</svg>
